<?xml version="1.0" encoding="UTF-8"?>
<!-- Generator: Adobe Illustrator 17.1.0, SVG Export Plug-In . SVG Version: 6.00 Build 0)  -->
<!DOCTYPE svg PUBLIC "-//W3C//DTD SVG 1.1//EN" "http://www.w3.org/Graphics/SVG/1.1/DTD/svg11.dtd">
<svg xmlns="http://www.w3.org/2000/svg" xmlns:xlink="http://www.w3.org/1999/xlink" version="1.1" id="Layer_1" x="0px" y="0px" width="512px" height="512px" viewBox="0 0 512 512" enable-background="new 0 0 512 512" xml:space="preserve">

<path d="M128,96h64V64h128v32h64V64c0,0-0.5-64-64-64H192c-64.5,0-64,64-64,64V96z M464,128H48c-26.4,0-48,21.6-48,48v80h512v-80  C512,149.6,490.4,128,464,128z M0,432c0,26.4,21.6,48,48,48h416c26.4,0,48-21.6,48-48V288H0V432z M192,320h128v32H192V320z"/>
</svg>
