<?xml version="1.0" encoding="UTF-8"?>
<!-- Generator: Adobe Illustrator 17.1.0, SVG Export Plug-In . SVG Version: 6.00 Build 0)  -->
<!DOCTYPE svg PUBLIC "-//W3C//DTD SVG 1.1//EN" "http://www.w3.org/Graphics/SVG/1.1/DTD/svg11.dtd">
<svg xmlns="http://www.w3.org/2000/svg" xmlns:xlink="http://www.w3.org/1999/xlink" version="1.1" id="Layer_1" x="0px" y="0px" width="512px" height="512px" viewBox="0 0 512 512" enable-background="new 0 0 512 512" xml:space="preserve">

<path d="M103.3,417.4c2.8,1.4,5.8,2.1,8.7,2.1c7.2,0,14-4,17.5-10.8l76-152l32.3,86.1c2.7,7.3,9.5,12.2,17.2,12.6  c7.7,0.4,15-3.8,18.5-10.8l76.5-153l15.9,39.7c2.9,7.3,9.8,12.1,17.7,12.3c7.8,0.2,15-4.3,18.2-11.4l80-176  c4.5-9.8,0.1-21.4-9.7-25.8c-9.8-4.5-21.4-0.1-25.8,9.7l-61.1,134.4l-15-37.6c-2.9-7.1-9.6-11.9-17.3-12.2  c-7.7-0.3-14.8,3.9-18.3,10.8l-76,152l-32.3-86.1c-2.7-7.3-9.5-12.2-17.2-12.6c-7.8-0.4-15,3.8-18.5,10.8l-96,192  C89.7,400.9,93.6,412.6,103.3,417.4z M64,448V0H0v512h512v-64H64z"/>
</svg>
