<?xml version="1.0" encoding="UTF-8"?>
<svg xmlns="http://www.w3.org/2000/svg" xmlns:xlink="http://www.w3.org/1999/xlink" version="1.1" id="Layer_3" x="0px" y="0px" width="512px" height="512px" viewBox="0 0 512 512" enable-background="new 0 0 512 512" xml:space="preserve">

<path d="M256,256c-59.7,0-109.8,40.8-124,96h68.6c11.1-19.1,31.8-32,55.4-32c23.6,0,44.3,12.9,55.4,32H380  C365.8,296.8,315.6,256,256,256z M160,224c17.7,0,32-14.3,32-32s-14.3-32-32-32s-32,14.3-32,32S142.3,224,160,224z M256,0  C114.6,0,0,114.6,0,256s114.6,256,256,256s256-114.6,256-256S397.4,0,256,0z M391.8,391.8C355.5,428,307.3,448,256,448  s-99.5-20-135.8-56.2C84,355.5,64,307.3,64,256s20-99.5,56.2-135.8C156.5,84,204.7,64,256,64s99.5,20,135.8,56.2  C428,156.5,448,204.7,448,256S428,355.5,391.8,391.8z M352,160c-17.7,0-32,14.3-32,32s14.3,32,32,32s32-14.3,32-32  S369.7,160,352,160z"/>
</svg>
