<?xml version="1.0" encoding="UTF-8"?>
<!-- Generator: Adobe Illustrator 17.1.0, SVG Export Plug-In . SVG Version: 6.00 Build 0)  -->
<!DOCTYPE svg PUBLIC "-//W3C//DTD SVG 1.1//EN" "http://www.w3.org/Graphics/SVG/1.1/DTD/svg11.dtd">
<svg xmlns="http://www.w3.org/2000/svg" xmlns:xlink="http://www.w3.org/1999/xlink" version="1.1" id="Layer_1" x="0px" y="0px" width="512px" height="512px" viewBox="0 0 512 512" enable-background="new 0 0 512 512" xml:space="preserve">

<path d="M502.2,94.6l-73.5-78c-3.6-3.8-8.6-6.1-13.9-6.2c-5.3-0.2-10.4,1.8-14.2,5.4L283.6,126c-2.2,2.1-4,4.7-5,7.6l-3.7,10  c-12-8.2-26.4-12.8-41.5-12.8c-10.7,0-21,2.3-30.7,6.8c-17.8,8.2-31.3,22.8-38.1,41.2c-6.8,18.4-6,38.4,2.3,56.3l9.7,20.9l-41,12.4  c-2.9,0.9-5.6,2.5-7.9,4.6L10.8,383.2c-8,7.5-8.4,20.1-0.8,28.1l73.5,78c3.6,3.8,8.6,6.1,13.9,6.2H98c5.1,0,9.9-1.9,13.6-5.4  l116.9-110.3c2.2-2.1,3.9-4.7,5-7.6l3.8-10.2c12,8.2,26.4,12.9,41.5,12.9c10.7,0,21-2.3,30.7-6.8c36.8-17.1,52.8-60.8,35.8-97.5  l-9.7-20.8l40.9-12.4c2.9-0.9,5.6-2.4,7.9-4.6l117-110.2c3.8-3.6,6.1-8.6,6.2-13.9C507.7,103.5,505.8,98.4,502.2,94.6z M197.8,354.2  l-99,93.5l-46.2-49.1l99-93.4l41.9-12.7l15.1,32.5L197.8,354.2z M292.7,332.1c-4.4,2.1-9.1,3.1-14,3.1c-13.2,0-25.2-7.7-30.7-19.5  l-45.1-97.2c-3.8-8.2-4.2-17.4-1-25.8c3.1-8.4,9.3-15.1,17.5-18.9c4.4-2.1,9.1-3.1,14-3.1c13.2,0,25.2,7.7,30.7,19.5l4.6,10  l40.5,87.2C317,304.2,309.6,324.2,292.7,332.1z M360.5,200.7l-41.8,12.7l-15.1-32.5l10.7-29.2l99.1-93.4l46.2,49.1L360.5,200.7z"/>
</svg>
