<?xml version="1.0" encoding="UTF-8"?>
<!-- Generator: Adobe Illustrator 17.1.0, SVG Export Plug-In . SVG Version: 6.00 Build 0)  -->
<!DOCTYPE svg PUBLIC "-//W3C//DTD SVG 1.1//EN" "http://www.w3.org/Graphics/SVG/1.1/DTD/svg11.dtd">
<svg xmlns="http://www.w3.org/2000/svg" xmlns:xlink="http://www.w3.org/1999/xlink" version="1.1" id="Layer_1" x="0px" y="0px" width="512px" height="512px" viewBox="0 0 512 512" enable-background="new 0 0 512 512" xml:space="preserve">

<path d="M498.2,238c-48.9-27.8-101.5-46.4-156.7-55.3c-7.3-11.4-17.4-21.3-29.9-28.8c-16.3-9.9-35.4-15.1-55.2-15.1  c-36.8,0-69.9,18.2-86.6,46.4c-91.6,16.6-152.7,51.4-155.4,52.9c-7,4-11.3,11.5-11.3,19.5s4.3,15.5,11.3,19.5  c4.4,2.5,108.4,61.6,249.6,61.6c83.3,0,162.1-20.7,234.2-61.6c7-3.9,11.4-11.4,11.4-19.5S505.2,242,498.2,238z M264,293.7  c-77.8,0-144.1-20.1-184.7-36.1c26.6-10.5,64.3-22.8,109.3-30.1c7.9-1.3,14.5-6.6,17.4-14.1c6.8-17.5,27.5-29.7,50.5-29.7  c22.5,0,42.6,11.4,50,28.4c3.1,7.3,9.8,12.3,17.6,13.4c39.2,5.4,77.1,16.1,113.1,32C382.8,281.6,324.7,293.7,264,293.7z"/>
</svg>
