<?xml version="1.0" encoding="UTF-8"?>
<!DOCTYPE svg PUBLIC "-//W3C//DTD SVG 1.1//EN" "http://www.w3.org/Graphics/SVG/1.1/DTD/svg11.dtd">
<svg xmlns="http://www.w3.org/2000/svg" xmlns:xlink="http://www.w3.org/1999/xlink" version="1.1" id="Layer_1" x="0px" y="0px" width="512px" height="512px" viewBox="0 0 512 512" enable-background="new 0 0 512 512" xml:space="preserve">

<path d="M444.1,419.5c-4.1-16.9-8.2-32-11.5-40.8c-10.8-28.4-62.8-48.9-109.1-63.2l-7.4-1.7C298.3,325.4,277.8,332,256,332  s-42.3-6.6-60.1-18.2l-7.4,1.7c-46.4,14.3-98.3,34.8-109.1,63.2c-3.3,8.8-7.4,23.9-11.5,40.8c0,0-12.9,60.5,8.6,60.5  c18.3,0,179.5,0,179.5,0s161.2,0,179.5,0C457,480,444.1,419.5,444.1,419.5z M256,300c53,0,96-50.1,96-112S309,76,256,76  s-96,50.1-96,112S203,300,256,300z"/>
</svg>
